<svg id="Слой_1" data-name="Слой 1" xmlns="http://www.w3.org/2000/svg" viewBox="0 0 123.62 65.66"><defs><style>.cls-1{fill:#fff;}</style></defs><path class="cls-1" d="M15.43,32.25l0,0-.16,0a3.17,3.17,0,0,1-1.31-.74,3,3,0,0,1-.52-3.73,1.92,1.92,0,0,0,0-1.91,3.27,3.27,0,0,1,.5-3.87A3.22,3.22,0,0,1,15.54,21,1.91,1.91,0,0,0,17,19.51a3.22,3.22,0,0,1,.85-1.63,3.29,3.29,0,0,1,2.12-1,3.37,3.37,0,0,1,1.6.27A1.91,1.91,0,0,0,23.33,17a3.3,3.3,0,0,1,4,.43,3.22,3.22,0,0,1,.83,1.29l.06.16,3.42,3.28.15-.21.17-.21c.15-.2.29-.36.42-.51l.16-.17-3.1-3a4.71,4.71,0,0,0-6.85-2.3.52.52,0,0,1-.47,0,4.72,4.72,0,0,0-5.32,1,4.64,4.64,0,0,0-1.21,2.33.53.53,0,0,1-.39.41,4.71,4.71,0,0,0-3,6.86.54.54,0,0,1,0,.51,4.45,4.45,0,0,0,2.5,6.49l4,3.72.15-.16c.28-.29.42-.45.65-.72l.14-.17Z"/><path class="cls-1" d="M20.64,31.18a2.69,2.69,0,0,0,1.72.81h.15a2.66,2.66,0,0,0,1.73-1.15c.63-.81,1.32-1.61,2-2.38l.89-1.05.08-.08.2-.22a1.89,1.89,0,0,0-.1-2.93A6.25,6.25,0,0,0,25.58,23a5,5,0,0,0-3.49-.24A4.73,4.73,0,0,0,19.4,24.9,5.12,5.12,0,0,0,20.64,31.18Zm0-5.55A3.25,3.25,0,0,1,23.49,24a3.47,3.47,0,0,1,1.48.33,4.7,4.7,0,0,1,1.31.88c.28.28.31.41.31.44s0,.2-.31.53l-.15.16v0a.76.76,0,0,0-.09.09v0l-.9,1.05c-.67.78-1.36,1.59-2,2.42-.4.51-.62.6-.72.61s-.32,0-.78-.45A3.69,3.69,0,0,1,20.65,25.63Z"/><path class="cls-1" d="M16,27h0a2.37,2.37,0,0,0-2.32,2.42,2.42,2.42,0,0,0,.73,1.66,2.39,2.39,0,0,0,1.64.65h.05A2.3,2.3,0,0,0,17.71,31a2.37,2.37,0,0,0,.66-1.69,2.34,2.34,0,0,0-.73-1.66A2.41,2.41,0,0,0,16,27Zm1,2.34a.9.9,0,0,1-.25.66.88.88,0,0,1-.65.28.91.91,0,0,1-.66-.25,1,1,0,0,1-.28-.65.88.88,0,0,1,.26-.65.93.93,0,0,1,.64-.29h0a.9.9,0,0,1,.64.26A.88.88,0,0,1,16.92,29.35Z"/><path class="cls-1" d="M17.76,22.41h0a2.49,2.49,0,0,0-4.2,1.85A2.46,2.46,0,0,0,14.33,26a2.43,2.43,0,0,0,1.71.69h.06a2.49,2.49,0,0,0,1.66-4.28Zm-1,2.51a1,1,0,0,1-1.8-.69,1.06,1.06,0,0,1,.29-.74,1,1,0,0,1,.73-.33h0a1,1,0,0,1,.75,1.76Z"/><path class="cls-1" d="M20,22.47h0a2.53,2.53,0,1,0-1.88-4.27,2.53,2.53,0,0,0,1.82,4.27Zm-.06-3.61a1.09,1.09,0,1,1-.74,1.87,1.08,1.08,0,0,1,0-1.53h0a1.09,1.09,0,0,1,.76-.34Z"/><path class="cls-1" d="M25.11,22a2.41,2.41,0,1,0-1.74-4.07,2.42,2.42,0,0,0,.08,3.4A2.4,2.4,0,0,0,25.11,22Zm-1-2.39a1,1,0,0,1,1-1,1,1,0,0,1,.67.27.92.92,0,0,1,.29.67.93.93,0,0,1-.26.69,1,1,0,0,1-1.36,0A1,1,0,0,1,24.15,19.62Z"/><path class="cls-1" d="M49.77,27.29a3.86,3.86,0,0,0-.71-.63l-.23-.17a3,3,0,0,0,.88-2.69,2.2,2.2,0,0,0-1.46-1.61,2.54,2.54,0,0,0-.13-3.32c-.91-.94-2.1-1-3.43-.14l-.1-.18a2.82,2.82,0,0,0-.36-.54,2.23,2.23,0,0,0-1.64-.72h0a2.94,2.94,0,0,0-2.08.93c-.81.82-1.61,1.66-2.43,2.5l-1,1.05,0-.06a2.63,2.63,0,0,0-2.9-1.26,1.26,1.26,0,0,0-.85.52l-.29.37a1.15,1.15,0,0,0-.14.17l-4.18,5.26-8.27,9.81-.8.84L31.42,48.88l.8-.83.07-.07L49.22,30.49C50.24,29.43,50.45,28.18,49.77,27.29ZM21.51,37.54l8-9.58h0l.24-.28.06-.08h0l1.64-2.06,1.09-1.39,1.68-2.07s.1-.13.14-.14a1.25,1.25,0,0,1,1.1.38.62.62,0,0,1,.15.69,7.93,7.93,0,0,1-.52,1.24c-.71,1.28-1.45,2.55-2.08,3.62a.82.82,0,0,0,0,1,2.89,2.89,0,0,1,.62,1.58v.07l.07,0,.16,0a1,1,0,0,0,.28,0,1.05,1.05,0,0,0,.26-.13,1.14,1.14,0,0,0,.25-.18,1.7,1.7,0,0,0,.22-.24,1.89,1.89,0,0,0,.17-.28v-.06a4.64,4.64,0,0,0-.48-1.29c-.08-.15-.05-.23,0-.4l.52-.88c.44-.74.9-1.5,1.28-2.28a6.91,6.91,0,0,1,1.36-1.76c.59-.62,1.18-1.23,1.78-1.84s1.18-1.23,1.78-1.84l0,0a2.1,2.1,0,0,1,.27-.24,1,1,0,0,1,1.38,0,1.12,1.12,0,0,1-.13,1.44c-.11.13-.24.26-.36.38l-.15.15L40.72,22.8l-3.95,4.08c-.37.39-.43.81-.14,1.11a.64.64,0,0,0,.49.23.85.85,0,0,0,.62-.28c.35-.35.7-.72,1-1.07l.42-.43L41,24.6l4.32-4.46a1.21,1.21,0,0,1,1.43-.35A.93.93,0,0,1,47.2,21a2,2,0,0,1-.44.73l-5.58,5.78-1.84,1.89c-.35.37-.43.75-.21,1.06a.69.69,0,0,0,.51.29.9.9,0,0,0,.69-.3L41.74,29l1.55-1.61,3.06-3.15,0,0a3,3,0,0,1,.26-.24,1,1,0,0,1,1.41,0,1.13,1.13,0,0,1-.2,1.47l-2,2c-.27.27-.54.54-.8.82l-3.29,3.4c-.56.58-.41,1-.18,1.2a.61.61,0,0,0,.47.2,1,1,0,0,0,.73-.39c.37-.38.74-.77,1.12-1.15,1-1,1.95-2,2.93-3a2.39,2.39,0,0,1,.76-.5.69.69,0,0,1,.87.29.67.67,0,0,1-.06.84,3.56,3.56,0,0,1-.41.53L44.82,33,31.26,47Z"/><path class="cls-1" d="M58,15.76h5.56a7.75,7.75,0,0,1,3.42.72,5.39,5.39,0,0,1,2.32,2.05,5.74,5.74,0,0,1,.82,3.1,5.75,5.75,0,0,1-.82,3.11A5.46,5.46,0,0,1,67,26.79a7.75,7.75,0,0,1-3.42.72H58Zm5.42,9.1A3.42,3.42,0,0,0,65.84,24a3.09,3.09,0,0,0,.92-2.37,3.08,3.08,0,0,0-.92-2.36,3.42,3.42,0,0,0-2.43-.86H61.32v6.45Z"/><path class="cls-1" d="M79.56,25.23h-5l-.92,2.28H70.28l5.19-11.75h3.27L84,27.51H80.49Zm-1-2.45L77.08,19l-1.51,3.76Z"/><path class="cls-1" d="M84.89,15.76h3.32v9.11h5.61v2.64H84.89Z"/><path class="cls-1" d="M103.13,25.23h-5l-.92,2.28H93.85L99,15.76h3.27l5.2,11.75h-3.45Zm-1-2.45L100.65,19l-1.51,3.76Z"/><path class="cls-1" d="M108.45,15.76h3.33V27.51h-3.33Z"/><path class="cls-1" d="M58,31.69h3.33V40.8h5.6v2.64H58Z"/><path class="cls-1" d="M76.24,41.15h-5l-.92,2.29H67l5.18-11.75h3.28l5.2,11.75H77.16Zm-1-2.45-1.52-3.76L72.24,38.7Z"/><path class="cls-1" d="M89.7,32.21a4.3,4.3,0,0,1,1.82,6.12,4.2,4.2,0,0,1-1.82,1.51,6.71,6.71,0,0,1-2.77.52H84.88v3.08H81.56V31.69h5.37A6.71,6.71,0,0,1,89.7,32.21ZM88.28,37.3a1.81,1.81,0,0,0,0-2.54,2.33,2.33,0,0,0-1.55-.46H84.88v3.45h1.85A2.33,2.33,0,0,0,88.28,37.3Z"/><path class="cls-1" d="M101.05,41.15h-5l-.92,2.29H91.77L97,31.69h3.27l5.2,11.75H102Zm-1-2.45-1.51-3.76L97.06,38.7Z"/><path class="cls-1" d="M60,49.91H58.29V47.82h.48V49.5h.9V47.82h.47V49.5h.3l-.06.91H60Z"/><path class="cls-1" d="M60.76,48.87a1,1,0,0,1,1-1.09,1,1,0,0,1,1,1.12V49H61.24a.58.58,0,0,0,.6.53.77.77,0,0,0,.57-.25l.28.25a1.08,1.08,0,0,1-.85.39A1,1,0,0,1,60.76,48.87Zm1.55-.15a.54.54,0,0,0-.53-.55.57.57,0,0,0-.54.55Z"/><path class="cls-1" d="M63.3,47.82h.48v.85h.92v-.85h.48v2.09H64.7v-.84h-.92v.84H63.3Z"/><path class="cls-1" d="M66.27,48.24h-.68v-.42h1.83v.42h-.67v1.67h-.48Z"/><path class="cls-1" d="M67.84,47.82h.48v.35a.84.84,0,0,1,.7-.39A1.09,1.09,0,0,1,69,50a.84.84,0,0,1-.7-.36v.95h-.48Zm1.67,1a.61.61,0,0,0-.6-.66.67.67,0,0,0,0,1.34A.62.62,0,0,0,69.51,48.86Z"/><path class="cls-1" d="M71.75,47.82h1.86v2.09h-.48V48.24h-.9v1.67h-.48Z"/><path class="cls-1" d="M74.13,48.87A1.12,1.12,0,1,1,75.24,50,1.09,1.09,0,0,1,74.13,48.87Zm1.75,0a.64.64,0,0,0-.64-.67.63.63,0,0,0-.63.67.65.65,0,0,0,.64.67A.63.63,0,0,0,75.88,48.87Z"/><path class="cls-1" d="M76.88,47.82h.48l.65,1,.65-1h.48v2.09h-.48V48.52l-.66.94-.65-.93v1.38h-.47Z"/><path class="cls-1" d="M79.66,48.87A1.12,1.12,0,1,1,80.77,50,1.09,1.09,0,0,1,79.66,48.87Zm1.75,0a.64.64,0,0,0-.64-.67.63.63,0,0,0-.63.67.65.65,0,0,0,.64.67A.63.63,0,0,0,81.41,48.87Z"/><path class="cls-1" d="M85.22,49.91H82.41V47.82h.48V49.5h.77V47.82h.48V49.5h.77V47.82h.47V49.5h.3l-.06.91h-.4Z"/><path class="cls-1" d="M86.12,47.82h.46v1.4l1-1.4H88v2.09h-.46V48.52l-1,1.39h-.45Z"/><path class="cls-1" d="M90.44,48.7l-.79-.88h.56l.86,1v-1h.48v1l.87-1H93l-.79.88L93,49.91h-.54l-.6-.89-.32.37v.52h-.48v-.52L90.75,49l-.59.89h-.54Z"/><path class="cls-1" d="M93.38,47.82h.47v1.4l1-1.4h.45v2.09h-.46V48.52l-1,1.39h-.45Z"/><path class="cls-1" d="M95.92,47.82H97c.42,0,.69.21.69.53a.49.49,0,0,1-.33.47.53.53,0,0,1,.43.53c0,.35-.3.56-.77.56H95.92Zm1,.87c.2,0,.32-.11.32-.26s-.09-.24-.31-.24h-.5v.5Zm.06.84c.23,0,.35-.11.35-.27s-.12-.25-.38-.25h-.52v.52Z"/><path class="cls-1" d="M98.18,48.87A1.11,1.11,0,1,1,99.28,50,1.08,1.08,0,0,1,98.18,48.87Zm1.75,0a.65.65,0,0,0-.65-.67.62.62,0,0,0-.62.67.64.64,0,1,0,1.27,0Z"/><path class="cls-1" d="M101.29,48.24h-.67v-.42h1.83v.42h-.67v1.67h-.49Z"/><path class="cls-1" d="M102.87,47.82h.47v.85h.93v-.85h.47v2.09h-.47v-.84h-.93v.84h-.47Z"/><path class="cls-1" d="M105.38,47.82h.48v.74h.44c.47,0,.83.2.83.66s-.31.69-.8.69h-1Zm.89,1.7c.24,0,.38-.1.38-.3s-.14-.29-.39-.29h-.4v.59Zm1.18-1.7h.47v2.09h-.47Z"/><path class="cls-1" d="M108.56,47.82H109l.65,1,.65-1h.48v2.09h-.48V48.52l-.66.94-.65-.93v1.38h-.47Z"/></svg>