<svg width="395" height="177" viewBox="0 0 395 177" fill="none" xmlns="http://www.w3.org/2000/svg">
    <path d="M75.7887 80.1418H75.347C74.0803 79.7853 72.9202 79.1196 71.9694 78.2035C70.6777 76.977 69.8397 75.343 69.5941 73.5714C69.3484 71.7997 69.7097 69.9966 70.6183 68.46C71.0368 67.6891 71.2561 66.8244 71.2561 65.9456C71.2561 65.0668 71.0368 64.2022 70.6183 63.4312C69.7288 61.8226 69.3773 59.9678 69.616 58.1419C69.8547 56.316 70.6709 54.6163 71.9434 53.2949C73.0582 52.1031 74.494 51.2656 76.0745 50.8852C77.0071 50.6538 77.8548 50.1586 78.5176 49.4579C79.1804 48.7572 79.6308 47.8802 79.8159 46.9302C80.1249 45.3209 80.8923 43.8374 82.0243 42.6609C83.4862 41.1457 85.4428 40.2153 87.5324 40.0417C88.949 39.9262 90.3713 40.1787 91.6635 40.7751C92.4115 41.0875 93.2215 41.2193 94.0289 41.1602C94.8364 41.1011 95.619 40.8526 96.3143 40.4346C97.9288 39.4455 99.8214 39.0198 101.7 39.2234C103.578 39.4269 105.338 40.2484 106.707 41.5608C107.643 42.4489 108.363 43.5423 108.811 44.7562L108.967 45.1753L117.853 53.7663L118.243 53.2163L118.685 52.6662C119.025 52.2103 119.389 51.7731 119.776 51.3566L120.191 50.8852L112.137 43.0276C111.496 41.3584 110.493 39.8549 109.201 38.6273C107.246 36.7471 104.73 35.5691 102.044 35.2755C99.357 34.982 96.6493 35.5893 94.3396 37.0034C94.1504 37.1001 93.9413 37.1504 93.7291 37.1504C93.517 37.1504 93.3078 37.1001 93.1185 37.0034C91.4403 36.2532 89.6165 35.8923 87.7816 35.9474C85.9466 36.0026 84.1473 36.4723 82.5165 37.3219C80.8856 38.1716 79.4649 39.3796 78.3589 40.8567C77.253 42.3338 76.4901 44.0424 76.1265 45.8563C76.0868 46.1141 75.9715 46.354 75.7956 46.5454C75.6197 46.7367 75.3911 46.8706 75.1392 46.9302C73.3139 47.3855 71.6169 48.2579 70.1795 49.4799C68.742 50.7019 67.6025 52.2407 66.849 53.9774C66.0956 55.7142 65.7484 57.6023 65.8344 59.4959C65.9203 61.3895 66.4371 63.2378 67.3447 64.898C67.4585 65.1019 67.5182 65.3319 67.5182 65.5659C67.5182 65.7998 67.4585 66.0299 67.3447 66.2338C66.0159 68.4944 65.4876 71.1428 65.8463 73.7455C66.2051 76.3481 67.4295 78.751 69.3192 80.5609C70.6124 81.7644 72.1575 82.6595 73.8401 83.1801L84.2328 92.8973L84.6225 92.4782C85.35 91.7186 85.7137 91.3258 86.3113 90.5924L86.6491 90.1471L75.7887 80.1418Z"
          fill="black"/>
    <path d="M89.3252 77.3392C90.509 78.5712 92.0979 79.3255 93.7941 79.4608H94.1838C95.093 79.2923 95.9584 78.9382 96.7269 78.4202C97.4954 77.9023 98.1507 77.2313 98.6526 76.4487C100.315 74.3534 102.108 72.258 103.849 70.215L106.161 67.5958L106.343 67.4124L106.889 66.8101C107.43 66.3216 107.859 65.7193 108.144 65.0457C108.429 64.3721 108.564 63.6436 108.539 62.9116C108.514 62.1797 108.33 61.4622 108 60.8097C107.67 60.1573 107.202 59.5858 106.629 59.1357C105.328 57.8657 103.816 56.8371 102.16 56.0974C99.3853 54.7199 96.2066 54.4126 93.2225 55.2331C90.2779 56.1518 87.7834 58.1524 86.2334 60.8383C84.7986 63.5303 84.3229 66.6368 84.8855 69.6397C85.4482 72.6426 87.0152 75.3603 89.3252 77.3392ZM89.3252 62.8027C90.0731 61.4969 91.1486 60.4125 92.4438 59.6585C93.7391 58.9045 95.2083 58.5074 96.704 58.5071C98.0327 58.5119 99.3445 58.8067 100.549 59.3714C101.807 59.947 102.959 60.7355 103.953 61.7026C104.68 62.4098 104.732 62.7502 104.732 62.8288C104.732 62.9074 104.732 63.3526 103.953 64.217L103.563 64.6361L103.355 64.8718L101.043 67.491C99.3022 69.5602 97.4835 71.6818 95.8466 73.8295C94.7814 75.1653 94.2098 75.401 93.976 75.4272C93.7421 75.4534 93.1445 75.4272 91.9234 74.2486C90.3046 72.8922 89.1752 71.0352 88.7101 68.9657C88.245 66.8962 88.4704 64.7299 89.3512 62.8027H89.3252Z"
          fill="black"/>
    <path d="M77.1398 66.4171C76.3298 66.4245 75.5299 66.5979 74.7885 66.9266C74.0471 67.2552 73.3796 67.7324 72.8268 68.3291C71.9882 69.2038 71.4243 70.3086 71.2057 71.5049C70.9871 72.7012 71.1235 73.936 71.5979 75.0545C72.0722 76.173 72.8634 77.1257 73.8723 77.793C74.8812 78.4603 76.063 78.8126 77.2696 78.806H77.3996C78.2083 78.7889 79.0057 78.6115 79.7463 78.2837C80.487 77.9559 81.1563 77.4842 81.7161 76.8956C82.2758 76.307 82.7151 75.613 83.0087 74.8532C83.3023 74.0934 83.4446 73.2827 83.4274 72.4674C83.4105 71.6534 83.2343 70.8507 82.9088 70.1055C82.5833 69.3603 82.115 68.6873 81.5308 68.1251C80.9465 67.5629 80.2578 67.1226 79.5043 66.8294C78.7507 66.5363 77.9472 66.3962 77.1398 66.4171ZM79.7379 72.546C79.7521 72.8658 79.6993 73.1851 79.5829 73.483C79.4665 73.7808 79.2891 74.0506 79.0624 74.2747C78.849 74.5061 78.5921 74.6924 78.3067 74.8228C78.0212 74.9532 77.7129 75.0251 77.3996 75.0343C76.7646 75.0262 76.1546 74.7839 75.6848 74.3533C75.4564 74.1387 75.2741 73.8793 75.1489 73.591C75.0238 73.3027 74.9586 72.9917 74.9573 72.677C74.9444 72.3596 74.9954 72.0429 75.107 71.7458C75.2186 71.4487 75.3886 71.1775 75.6068 70.9483C76.0476 70.4794 76.6551 70.2062 77.2956 70.1887C77.9166 70.1894 78.513 70.4336 78.9585 70.8698C79.3835 71.3261 79.6324 71.9207 79.66 72.546H79.7379Z"
          fill="black"/>
    <path d="M81.8423 54.3688C81.2321 53.7765 80.5115 53.3118 79.7222 53.0016C78.9329 52.6915 78.0905 52.5419 77.2436 52.5615C75.5228 52.5999 73.8875 53.3253 72.6968 54.5783C71.522 55.8267 70.8866 57.494 70.9301 59.2143C70.9389 60.0686 71.1183 60.9125 71.4575 61.6955C71.7968 62.4785 72.2889 63.1846 72.9046 63.7717C74.1051 64.936 75.7076 65.5841 77.3735 65.579H77.6333C78.4803 65.5671 79.3165 65.3849 80.0928 65.0431C80.8691 64.7013 81.5699 64.2067 82.1541 63.5884C82.7343 62.9624 83.1865 62.2274 83.4848 61.4253C83.7832 60.6231 83.9218 59.7696 83.8929 58.9135C83.8639 58.0573 83.6679 57.2152 83.3161 56.4354C82.9643 55.6556 82.4635 54.9534 81.8423 54.3688ZM79.2442 60.9692C78.9985 61.2271 78.7049 61.4338 78.38 61.5774C78.0551 61.7209 77.7053 61.7986 77.3506 61.8059C76.996 61.8132 76.6434 61.75 76.313 61.6199C75.9826 61.4898 75.6808 61.2954 75.4249 61.0477C75.169 60.8001 74.9639 60.5041 74.8215 60.1766C74.6791 59.849 74.6022 59.4964 74.5949 59.1389C74.5877 58.7814 74.6503 58.4259 74.7794 58.0928C74.9084 57.7597 75.1013 57.4555 75.3469 57.1975C75.5892 56.9342 75.8826 56.7239 76.2089 56.5797C76.5352 56.4355 76.8874 56.3605 77.2436 56.3593C77.7973 56.2994 78.3554 56.4203 78.8357 56.7043C79.316 56.9883 79.693 57.4204 79.9113 57.9368C80.1296 58.4532 80.1776 59.0266 80.0481 59.5726C79.9186 60.1186 79.6186 60.6081 79.1922 60.9692H79.2442Z"
          fill="black"/>
    <path d="M87.6623 54.5259C88.5251 54.5104 89.3761 54.3217 90.1657 53.9709C90.9553 53.6202 91.6676 53.1143 92.2611 52.4829C92.8581 51.8561 93.3264 51.1165 93.6391 50.3067C93.9519 49.4969 94.1029 48.6328 94.0836 47.7641C94.0643 46.8953 93.875 46.039 93.5266 45.2441C93.1782 44.4493 92.6775 43.7316 92.0533 43.1323C90.7897 41.9218 89.1024 41.2644 87.3597 41.3037C85.617 41.3429 83.9605 42.0756 82.7518 43.3418C81.8726 44.2844 81.285 45.465 81.0611 46.739C80.8373 48.0131 80.9868 49.3253 81.4914 50.515C81.996 51.7047 82.8337 52.7202 83.9021 53.4372C84.9705 54.1543 86.223 54.5417 87.5065 54.5521L87.6623 54.5259ZM87.5065 45.0705C88.2318 45.0712 88.9293 45.3525 89.4551 45.8563C89.7167 46.1191 89.9243 46.4314 90.0659 46.7752C90.2076 47.1191 90.2804 47.4877 90.2804 47.86C90.2804 48.2323 90.2076 48.6009 90.0659 48.9448C89.9243 49.2886 89.7167 49.6009 89.4551 49.8637C88.9397 50.4123 88.2297 50.7325 87.4805 50.7543C87.112 50.7635 86.7454 50.6988 86.4019 50.5639C86.0585 50.429 85.745 50.2266 85.4799 49.9684C84.9579 49.4343 84.6653 48.7146 84.6653 47.9648C84.6653 47.215 84.9579 46.4952 85.4799 45.9611C85.9953 45.4125 86.7054 45.0923 87.4545 45.0705H87.5065Z"
          fill="black"/>
    <path d="M101.017 53.321C101.862 53.328 102.7 53.1595 103.477 52.826C104.255 52.4926 104.957 52.0013 105.538 51.3828C106.108 50.7846 106.556 50.079 106.856 49.3062C107.155 48.5334 107.301 47.7086 107.284 46.879C107.267 46.0495 107.088 45.2315 106.757 44.4717C106.426 43.712 105.95 43.0254 105.356 42.4513C104.762 41.8782 104.062 41.4302 103.294 41.1334C102.527 40.8366 101.709 40.6969 100.887 40.7226C100.064 40.7319 99.2504 40.9083 98.496 41.2413C97.7416 41.5743 97.0615 42.0571 96.4962 42.6609C95.3483 43.8717 94.7224 45.4914 94.7554 47.1659C94.8026 48.8105 95.4823 50.3721 96.6507 51.5207C97.8192 52.6693 99.385 53.3149 101.017 53.321ZM98.4188 47.0611C98.4188 46.3665 98.6926 45.7002 99.1798 45.209C99.6671 44.7178 100.328 44.4419 101.017 44.4419C101.664 44.4508 102.285 44.7029 102.758 45.1491C102.993 45.3761 103.181 45.6484 103.31 45.9497C103.44 46.2511 103.508 46.5756 103.511 46.904C103.624 47.2943 103.645 47.7059 103.573 48.1059C103.501 48.506 103.338 48.8836 103.095 49.2089C102.853 49.5342 102.54 49.7981 102.179 49.98C101.818 50.1618 101.42 50.2566 101.017 50.2566C100.614 50.2566 100.216 50.1618 99.8551 49.98C99.4943 49.7981 99.1805 49.5342 98.9385 49.2089C98.6965 48.8836 98.5329 48.506 98.4608 48.1059C98.3886 47.7059 98.4098 47.2943 98.5228 46.904L98.4188 47.0611Z"
          fill="black"/>
    <path d="M164.984 67.1504C164.46 66.5218 163.848 65.9746 163.165 65.5266L162.542 65.0551C163.473 64.1637 164.172 63.054 164.575 61.8248C164.978 60.5956 165.074 59.285 164.854 58.0094C164.631 57.0347 164.162 56.1345 163.493 55.3958C162.824 54.6571 161.977 54.1049 161.035 53.7926C162.038 52.5515 162.559 50.9852 162.502 49.3855C162.444 47.7858 161.812 46.2616 160.723 45.0968C158.333 42.6347 155.267 42.4775 151.811 44.73L151.551 44.2848C151.301 43.7668 150.987 43.2827 150.616 42.8442C150.07 42.255 149.41 41.784 148.678 41.4598C147.945 41.1356 147.155 40.9649 146.355 40.9584C145.339 40.9815 144.337 41.2089 143.409 41.6272C142.481 42.0454 141.646 42.6462 140.951 43.3943L134.637 49.9423L132.039 52.5615V52.4044C131.308 51.1051 130.178 50.0806 128.819 49.4853C127.46 48.8901 125.946 48.7563 124.504 49.1042C124.059 49.1645 123.631 49.3165 123.247 49.5508C122.862 49.7851 122.53 50.0967 122.27 50.4661C122.036 50.8066 121.776 51.1209 121.543 51.4352L121.153 51.8805L110.111 65.7099L88.6238 91.4305L86.5452 93.6045L117.308 123.621L119.412 121.447L119.594 121.263L163.581 75.4534C166.231 72.7556 166.777 69.4815 164.984 67.1504ZM91.5596 93.9973L112.345 68.9054L112.943 68.1458L113.124 67.9363C114.553 66.1552 115.982 64.3218 117.385 62.5407L120.218 58.9262L124.582 53.4782C124.669 53.3257 124.795 53.1992 124.946 53.1115C125.467 53.0313 125.999 53.08 126.497 53.2534C126.995 53.4268 127.444 53.7197 127.804 54.1068C128.04 54.3404 128.203 54.6387 128.272 54.9646C128.341 55.2905 128.314 55.6297 128.194 55.9402C127.826 57.0559 127.375 58.1417 126.843 59.1881C124.972 62.5407 123.05 65.8409 121.413 68.6696C121.122 69.0432 120.964 69.5044 120.964 69.9792C120.964 70.4541 121.122 70.9152 121.413 71.2888C122.334 72.4832 122.893 73.9201 123.024 75.4272V75.6105H123.179C123.326 75.6359 123.475 75.6359 123.621 75.6105C123.854 75.6469 124.09 75.6469 124.323 75.6105L125.024 75.2962L125.674 74.7986C125.884 74.6079 126.075 74.3975 126.245 74.17C126.414 73.9442 126.554 73.6978 126.661 73.4366C126.41 72.2554 125.99 71.1172 125.414 70.0578C125.206 69.6649 125.414 69.4554 125.544 69.0363L126.895 66.7052C128.038 64.767 129.233 62.7764 130.22 60.7334C131.134 59.0154 132.319 57.4585 133.728 56.1236L138.353 51.3043L143.003 46.4849C143.216 46.2622 143.442 46.0523 143.679 45.8564C144.163 45.3843 144.811 45.1203 145.485 45.1203C146.158 45.1203 146.806 45.3843 147.29 45.8564C147.687 46.425 147.869 47.1182 147.802 47.8101C147.735 48.5021 147.425 49.147 146.927 49.6279C146.641 49.9684 146.329 50.309 146.017 50.6233L145.628 51.0162L141.237 55.5998L130.974 66.2861C129.987 67.3076 129.857 68.4077 130.61 69.2196C130.77 69.4003 130.967 69.545 131.186 69.6442C131.405 69.7435 131.643 69.7952 131.883 69.7959C132.187 69.7875 132.485 69.7184 132.762 69.5924C133.038 69.4665 133.287 69.2864 133.494 69.0625C134.404 68.1458 135.313 67.2028 136.092 66.2599L137.184 65.1337L141.808 60.3144L153.032 48.6327C153.461 48.0914 154.055 47.7081 154.723 47.5423C155.39 47.3765 156.093 47.4376 156.722 47.716C157.265 47.9784 157.692 48.4337 157.922 48.9945C158.152 49.5552 158.169 50.1819 157.969 50.7543C157.72 51.4627 157.331 52.1131 156.826 52.6662L142.588 67.5957L137.833 72.546C136.924 73.5151 136.716 74.5105 137.287 75.3224C137.44 75.5353 137.634 75.7147 137.857 75.8498C138.08 75.9848 138.329 76.0727 138.587 76.1082C138.926 76.1121 139.262 76.0415 139.572 75.9013C139.881 75.7611 140.157 75.5546 140.379 75.2962C141.626 74.039 142.822 72.677 144.043 71.4983L148.096 67.2815L156.02 59.031C156.225 58.7926 156.452 58.5735 156.696 58.3762C157.183 57.8883 157.841 57.6145 158.528 57.6145C159.214 57.6145 159.872 57.8883 160.359 58.3762C160.732 58.9781 160.885 59.6927 160.79 60.396C160.695 61.0993 160.359 61.7469 159.84 62.2264L154.643 67.4648L152.591 69.6125L144.017 78.5179C142.562 80.037 142.977 81.137 143.575 81.6609C143.732 81.8304 143.92 81.9664 144.13 82.0609C144.34 82.1553 144.566 82.2064 144.796 82.2109C145.538 82.1177 146.216 81.743 146.693 81.1632L149.577 78.1511C152.175 75.5319 154.643 72.9127 157.215 70.2935C157.779 69.7397 158.44 69.2957 159.164 68.9839C159.551 68.8281 159.978 68.8067 160.378 68.9233C160.778 69.0398 161.128 69.2876 161.373 69.6274C161.617 69.9671 161.742 70.3795 161.728 70.799C161.714 71.2186 161.562 71.6214 161.295 71.9436C160.983 72.4456 160.617 72.9112 160.203 73.3318L151.863 82.0537L116.632 118.723L91.5596 93.9973Z"
          fill="black"/>
    <path d="M186.367 36.8986H200.813C203.878 36.8425 206.916 37.4873 209.698 38.7845C212.18 39.9505 214.273 41.8152 215.726 44.1538C217.122 46.6332 217.856 49.4355 217.856 52.2865C217.856 55.1375 217.122 57.9397 215.726 60.4192C214.281 62.7647 212.185 64.6314 209.698 65.7885C206.916 67.0857 203.878 67.7305 200.813 67.6743H186.367V36.8986ZM200.449 60.7334C202.764 60.8415 205.03 60.0331 206.763 58.4809C208.283 56.782 209.125 54.5749 209.125 52.2865C209.125 49.9981 208.283 47.791 206.763 46.0921C205.03 44.5399 202.764 43.7315 200.449 43.8395H194.993V60.7334H200.449Z"
          fill="black"/>
    <path d="M242.41 61.7548H229.419L227.028 67.7266H218.22L231.783 36.8986H240.279L253.789 67.6742H244.8L242.41 61.7548ZM239.811 55.3378L235.888 45.4896L232.043 55.233L239.811 55.3378Z"
          fill="black"/>
    <path d="M256.232 36.8986H264.884V60.7857H279.433V67.6742H256.232V36.8986Z" fill="black"/>
    <path d="M303.674 61.7548H290.683L288.293 67.7266H279.485L292.996 36.8986H301.518L315.028 67.6742H306.039L303.674 61.7548ZM301.076 55.233L297.153 45.3848L293.282 55.233H301.076Z"
          fill="black"/>
    <path d="M317.47 36.8986H326.122V67.6742H317.47V36.8986Z" fill="black"/>
    <path d="M186.367 78.8059H194.993V102.667H209.569V109.582H186.367V78.8059Z" fill="black"/>
    <path d="M233.784 103.479H220.793L218.376 109.451H209.569L223.131 78.8059H231.627L245.164 109.582H236.122L233.784 103.479ZM231.185 97.0356L227.262 87.1874L223.391 97.1404L231.185 97.0356Z"
          fill="black"/>
    <path d="M268.755 80.0631C270.681 80.8754 272.32 82.2535 273.457 84.0181C274.546 85.8408 275.121 87.928 275.121 90.0554C275.121 92.1828 274.546 94.2699 273.457 96.0927C272.291 97.8249 270.66 99.1873 268.755 100.021C266.48 100.991 264.027 101.464 261.558 101.41H256.232V109.451H247.606V78.8059H261.558C264.019 78.6974 266.474 79.1263 268.755 80.0631ZM265.039 93.3687C265.499 92.9588 265.86 92.4483 266.094 91.8763C266.328 91.3044 266.43 90.686 266.39 90.0684C266.428 89.4434 266.326 88.8178 266.092 88.2376C265.859 87.6574 265.499 87.1374 265.039 86.7159C263.891 85.8473 262.47 85.4285 261.038 85.5373H256.232V94.5211H261.038C262.466 94.6374 263.888 94.228 265.039 93.3687Z"
          fill="black"/>
    <path d="M298.244 103.479H285.253L282.889 109.451H274.081L287.592 78.8059H296.114L309.624 109.582H300.634L298.244 103.479ZM295.646 97.0356L291.723 87.1874L287.851 97.1404L295.646 97.0356Z"
          fill="black"/>
    <path d="M192.291 119.299V125.533H190.862V120.556H187.822V125.533H186.367V119.299H192.291Z" fill="black"/>
    <path d="M199.747 119.639C200.227 119.889 200.617 120.282 200.865 120.766C201.154 121.266 201.298 121.837 201.28 122.416C201.297 123.002 201.153 123.582 200.865 124.092C200.617 124.575 200.227 124.969 199.747 125.218C199.253 125.486 198.698 125.622 198.137 125.611C197.766 125.632 197.395 125.567 197.053 125.422C196.711 125.277 196.406 125.055 196.162 124.773V127.785H194.733V119.299H196.084V120.137C196.326 119.838 196.639 119.604 196.993 119.456C197.358 119.316 197.746 119.245 198.137 119.247C198.698 119.236 199.253 119.371 199.747 119.639ZM199.306 123.83C199.477 123.639 199.609 123.416 199.694 123.173C199.778 122.93 199.814 122.673 199.799 122.416C199.824 121.897 199.647 121.39 199.306 121.001C199.13 120.83 198.923 120.695 198.695 120.605C198.468 120.516 198.225 120.472 197.981 120.478C197.654 120.475 197.332 120.556 197.045 120.713C196.768 120.872 196.542 121.108 196.396 121.394C196.225 121.707 196.136 122.059 196.136 122.416C196.136 122.773 196.225 123.124 196.396 123.437C196.533 123.729 196.761 123.968 197.045 124.118C197.325 124.296 197.65 124.387 197.981 124.38C198.244 124.402 198.51 124.364 198.757 124.269C199.005 124.174 199.228 124.024 199.41 123.83H199.306Z"
          fill="black"/>
    <path d="M203.385 119.299H204.944V123.332L208.347 119.22H209.672V125.454H208.217V121.342L204.84 125.454H203.489L203.385 119.299Z"
          fill="black"/>
    <path d="M219.39 119.639C219.866 119.902 220.261 120.292 220.533 120.766C220.816 121.268 220.959 121.838 220.949 122.416C220.966 122.994 220.822 123.566 220.533 124.066C220.263 124.548 219.868 124.946 219.39 125.218C218.876 125.486 218.305 125.621 217.727 125.611C217.216 125.619 216.71 125.512 216.246 125.297C215.811 125.089 215.436 124.773 215.155 124.38C214.85 123.994 214.652 123.533 214.583 123.044H213.544V125.533H212.089V119.299H213.544V121.735H214.609C214.685 121.256 214.882 120.805 215.181 120.425C215.46 120.043 215.837 119.744 216.272 119.561C216.728 119.349 217.225 119.242 217.727 119.247C218.305 119.236 218.876 119.371 219.39 119.639ZM218.636 124.144C218.914 123.986 219.14 123.749 219.286 123.463C219.445 123.138 219.526 122.779 219.52 122.416C219.534 121.894 219.348 121.387 219 121.001C218.831 120.827 218.629 120.689 218.405 120.594C218.182 120.5 217.943 120.451 217.701 120.451C217.459 120.451 217.219 120.5 216.996 120.594C216.773 120.689 216.571 120.827 216.402 121.001C216.061 121.39 215.884 121.897 215.908 122.416C215.89 122.941 216.066 123.454 216.402 123.856C216.687 124.134 217.053 124.313 217.446 124.364C217.839 124.416 218.238 124.339 218.584 124.144H218.636Z"
          fill="black"/>
    <path d="M227.6 120.556H225.443V125.533H223.988V120.556H221.832V119.299H227.6V120.556Z" fill="black"/>
    <path d="M239.603 124.302V126.921H238.252V125.533H233.524V126.921H232.198V124.302H232.484C232.874 124.302 233.134 124.04 233.29 123.542C233.45 122.854 233.546 122.153 233.576 121.447V119.299H238.772V124.302H239.603ZM234.667 123.306C234.625 123.681 234.46 124.031 234.199 124.302H237.239V120.556H234.875V121.551C234.843 122.149 234.774 122.744 234.667 123.332V123.306Z"
          fill="black"/>
    <path d="M247.06 119.299V125.533H245.631V120.556H243.319V121.787C243.302 122.481 243.232 123.173 243.111 123.856C243.021 124.331 242.826 124.779 242.539 125.166C242.408 125.328 242.241 125.457 242.051 125.543C241.862 125.63 241.656 125.671 241.448 125.664C241.176 125.651 240.905 125.607 240.643 125.533V124.302H240.928C241.057 124.308 241.185 124.28 241.299 124.22C241.413 124.16 241.509 124.071 241.578 123.961C241.735 123.698 241.832 123.402 241.864 123.097C241.864 122.782 241.864 122.311 241.864 121.682V119.273L247.06 119.299Z"
          fill="black"/>
    <path d="M254.803 119.299V125.533H253.503V123.647H251.867L250.619 125.533H249.113L250.568 123.463C250.167 123.335 249.814 123.089 249.554 122.756C249.31 122.403 249.183 121.982 249.19 121.551C249.177 121.236 249.239 120.922 249.37 120.635C249.501 120.348 249.698 120.096 249.944 119.901C250.552 119.475 251.283 119.263 252.022 119.299H254.803ZM250.619 121.604C250.619 122.285 251.061 122.651 251.971 122.651H253.503V120.53H252.022C251.087 120.53 250.619 120.897 250.619 121.604Z"
          fill="black"/>
    <path d="M266.962 123.044H265.923V125.533H264.494V123.044H263.455L261.948 125.533H260.233L262.259 122.311L260.389 119.299H261.922L263.429 121.918H264.494V119.299H265.923V121.918H266.962L268.495 119.299H270.028L268.157 122.311L270.184 125.533H268.469L266.962 123.044Z"
          fill="black"/>
    <path d="M271.847 119.299H273.276V123.332L276.705 119.22H278.004V125.454H276.575V121.342L273.172 125.454H271.847V119.299Z"
          fill="black"/>
    <path d="M286.163 123.778C286.176 124.031 286.125 124.284 286.016 124.512C285.907 124.741 285.743 124.939 285.539 125.087C284.973 125.42 284.322 125.575 283.668 125.533H280.525V119.299H283.565C284.18 119.275 284.791 119.42 285.331 119.718C285.531 119.846 285.693 120.025 285.803 120.236C285.912 120.448 285.965 120.684 285.955 120.923C285.964 121.212 285.882 121.496 285.721 121.735C285.535 121.973 285.294 122.162 285.02 122.285C285.354 122.358 285.652 122.548 285.861 122.821C286.07 123.094 286.177 123.433 286.163 123.778ZM281.902 121.918H283.435C284.162 121.918 284.552 121.656 284.552 121.132C284.552 120.608 284.162 120.373 283.435 120.373H281.902V121.918ZM284.76 123.699C284.765 123.579 284.742 123.459 284.692 123.35C284.642 123.241 284.567 123.145 284.474 123.071C284.212 122.925 283.914 122.861 283.616 122.887H281.902V124.485H283.565C284.37 124.485 284.76 124.223 284.76 123.699Z"
          fill="black"/>
    <path d="M289.332 125.218C288.838 124.944 288.428 124.537 288.148 124.042C287.869 123.548 287.73 122.985 287.747 122.416C287.695 121.827 287.812 121.236 288.085 120.713C288.365 120.23 288.769 119.832 289.254 119.561C289.78 119.302 290.358 119.167 290.943 119.167C291.528 119.167 292.106 119.302 292.632 119.561C293.13 119.824 293.544 120.223 293.827 120.713C294.1 121.215 294.243 121.778 294.243 122.35C294.243 122.923 294.1 123.486 293.827 123.987C293.544 124.477 293.13 124.877 292.632 125.14C292.106 125.399 291.528 125.534 290.943 125.534C290.358 125.534 289.78 125.399 289.254 125.14L289.332 125.218ZM292.346 123.83C292.521 123.641 292.657 123.418 292.746 123.175C292.835 122.933 292.876 122.674 292.866 122.416C292.881 121.894 292.694 121.387 292.346 121.001C292.171 120.83 291.963 120.695 291.736 120.605C291.508 120.516 291.265 120.472 291.021 120.478C290.781 120.473 290.542 120.516 290.319 120.606C290.096 120.696 289.893 120.831 289.722 121.001C289.544 121.188 289.405 121.411 289.316 121.654C289.226 121.897 289.188 122.157 289.202 122.416C289.186 122.675 289.224 122.935 289.314 123.178C289.403 123.422 289.542 123.644 289.722 123.83C289.888 124.009 290.089 124.151 290.313 124.246C290.537 124.341 290.778 124.386 291.021 124.38C291.268 124.387 291.513 124.341 291.741 124.247C291.97 124.152 292.176 124.01 292.346 123.83Z"
          fill="black"/>
    <path d="M301.076 120.556H298.92V125.533H297.465V120.556H295.308V119.299H301.076V120.556Z" fill="black"/>
    <path d="M302.609 119.299H304.064V121.918H307.156V119.299H308.611V125.533H307.156V123.07H304.064V125.533H302.609V119.299Z"
          fill="black"/>
    <path d="M315.937 121.892C316.147 122.082 316.312 122.318 316.419 122.58C316.527 122.843 316.576 123.127 316.561 123.411C316.574 123.711 316.519 124.01 316.403 124.287C316.286 124.563 316.109 124.81 315.886 125.009C315.316 125.407 314.629 125.601 313.937 125.559H311.131V119.325H312.586V121.368H314.145C314.784 121.329 315.418 121.514 315.937 121.892ZM314.768 124.197C314.886 124.099 314.978 123.974 315.037 123.833C315.096 123.691 315.12 123.538 315.106 123.385C315.118 123.242 315.097 123.099 315.042 122.967C314.988 122.834 314.903 122.717 314.794 122.625C314.499 122.439 314.155 122.348 313.807 122.363H312.586V124.459H313.807C314.149 124.501 314.494 124.407 314.768 124.197ZM317.366 119.299H318.821V125.533H317.366V119.299Z"
          fill="black"/>
    <path d="M325.187 125.533L323.602 123.385L322.017 125.533H320.406L322.823 122.363L320.51 119.299H322.121L323.654 121.342L325.161 119.299H326.72L324.408 122.363L326.824 125.533H325.187Z"
          fill="black"/>
</svg>
