<svg width="69" height="69" viewBox="0 0 69 69" fill="none" xmlns="http://www.w3.org/2000/svg">
<g clip-path="url(#clip0_141_146)">
<path d="M34.5 69C53.5538 69 69 53.5538 69 34.5C69 15.4462 53.5538 0 34.5 0C15.4462 0 0 15.4462 0 34.5C0 53.5538 15.4462 69 34.5 69Z" fill="#242236"/>
<path d="M14.3585 34.2008C14.3585 34.2008 31.6085 27.1214 37.5911 24.6286C39.8845 23.6315 47.6619 20.4407 47.6619 20.4407C47.6619 20.4407 51.2515 19.0448 50.9524 22.4349C50.8526 23.8309 50.0549 28.7167 49.2573 34.0014C48.0607 41.4798 46.7645 49.656 46.7645 49.656C46.7645 49.656 46.5651 51.9494 44.87 52.3482C43.1749 52.747 40.3829 50.9524 39.8845 50.5534C39.4855 50.2543 32.4061 45.7673 29.8137 43.5736C29.1156 42.9754 28.318 41.7789 29.9133 40.3829C33.5029 37.0925 37.7905 33.0043 40.3829 30.4119C41.5795 29.2153 42.776 26.4234 37.7905 29.8135C30.7111 34.6994 23.7313 39.2861 23.7313 39.2861C23.7313 39.2861 22.1359 40.2832 19.1446 39.3857C16.1532 38.4885 12.6633 37.2919 12.6633 37.2919C12.6633 37.2919 10.2704 35.7962 14.3585 34.2008Z" fill="white"/>
</g>
<defs>
<clipPath id="clip0_141_146">
<rect width="69" height="69" fill="white"/>
</clipPath>
</defs>
</svg>
