<svg width="69" height="69" viewBox="0 0 69 69" fill="none" xmlns="http://www.w3.org/2000/svg">
<g clip-path="url(#clip0_141_149)">
<path d="M34.5 69C53.5538 69 69 53.5538 69 34.5C69 15.4462 53.5538 0 34.5 0C15.4462 0 0 15.4462 0 34.5C0 53.5538 15.4462 69 34.5 69Z" fill="#242236"/>
<mask id="mask0_141_149" style="mask-type:luminance" maskUnits="userSpaceOnUse" x="10" y="10" width="51" height="51">
<path d="M61 10H10V61H61V10Z" fill="white"/>
</mask>
<g mask="url(#mask0_141_149)">
<path d="M54.8801 15.1001H15.1001V55.9001H54.8801V15.1001Z" fill="white"/>
<path d="M48.2095 10H22.75C15.7476 10 10 15.7476 10 22.7905V48.25C10 55.2524 15.7476 61 22.75 61H48.2095C55.2524 61 61 55.2524 61 48.2095V22.7905C61 15.7476 55.2524 10 48.2095 10ZM34.1238 20.4833C34.2048 19.2286 35.3786 19.6738 35.9857 19.5929C43.5952 19.8357 50.1524 26.6762 50.0714 34.0429C50.0714 34.7714 50.3143 35.8238 49.2214 35.8238C48.169 35.8238 48.4524 34.731 48.331 34.0024C47.319 26.1905 43.6762 22.5071 35.7429 21.2929C35.0952 21.2119 34.0833 21.3333 34.1238 20.4833ZM45.4976 34.3667C44.2833 34.5286 44.5262 33.4762 44.4048 32.7881C43.5952 28.0119 41.8952 26.2714 36.9976 25.219C36.269 25.0571 35.1357 25.1786 35.3381 24.0857C35.5 23.0333 36.5119 23.3976 37.281 23.4786C42.1786 24.0452 46.1857 28.2143 46.1452 32.7881C46.0643 33.2738 46.3881 34.2048 45.4976 34.3667ZM42.4619 31.8571C42.4619 32.5048 42.381 33.1119 41.6524 33.1929C41.1262 33.2738 40.8024 32.8286 40.7214 32.3024C40.519 30.3595 39.4667 29.1857 37.4429 28.8619C36.8357 28.781 36.269 28.5786 36.5524 27.769C36.7548 27.2429 37.2405 27.1619 37.7667 27.1619C39.9524 27.1214 42.4619 29.6714 42.4619 31.8571ZM50.1524 46.7929C49.3024 49.1 46.4286 51.4476 43.9595 51.4071C43.5952 51.3262 42.9071 51.2048 42.3 50.9619C31.4524 46.3881 23.5595 38.8595 19.1071 28.0929C17.6095 24.4905 19.1881 21.4143 22.9524 20.2C23.6405 19.9571 24.2881 19.9571 24.9762 20.2C26.5952 20.7667 30.6833 26.3119 30.7643 27.931C30.8452 29.1857 29.9548 29.8738 29.1048 30.4405C27.4452 31.5333 27.4452 32.9095 28.1738 34.4881C29.7524 37.969 32.4643 40.3976 35.9857 41.9357C37.2405 42.5024 38.4952 42.4619 39.3452 41.1667C40.8833 38.8595 42.7857 38.981 44.85 40.3976C45.9024 41.1262 46.9548 41.8143 47.9262 42.5833C49.2619 43.6762 50.9619 44.5667 50.1524 46.7929Z" fill="#242236"/>
</g>
</g>
<defs>
<clipPath id="clip0_141_149">
<rect width="69" height="69" fill="white"/>
</clipPath>
</defs>
</svg>
